<svg id="Group_3592" data-name="Group 3592" xmlns="http://www.w3.org/2000/svg" xmlns:xlink="http://www.w3.org/1999/xlink" width="354.5" height="287.12" viewBox="0 0 354.5 287.12">
  <defs>
    <clipPath id="clip-path">
      <rect id="Rectangle_1388" data-name="Rectangle 1388" width="354.5" height="287.12" fill="none"/>
    </clipPath>
  </defs>
  <g id="Group_3591" data-name="Group 3591" clip-path="url(#clip-path)">
    <path id="Path_2368" data-name="Path 2368" d="M1166.129,944.759a.565.565,0,0,0-.775-.2l-1.876,1.109-1.109-1.876a.565.565,0,0,0-.974.575l1.109,1.876-1.876,1.109a.565.565,0,0,0,.575.974l1.876-1.109,1.109,1.876a.565.565,0,0,0,.973-.575l-1.109-1.876,1.876-1.109a.566.566,0,0,0,.2-.774" transform="translate(-887.018 -721.259)" fill="#dedede"/>
    <path id="Path_2369" data-name="Path 2369" d="M1197.082,985.544a2.463,2.463,0,1,1,2.463-2.463,2.465,2.465,0,0,1-2.463,2.463m0-3.609a1.147,1.147,0,1,0,1.146,1.147,1.148,1.148,0,0,0-1.146-1.147" transform="translate(-913.214 -749.623)" fill="#dedede"/>
    <path id="Path_2370" data-name="Path 2370" d="M140.847,1139.023a2.463,2.463,0,1,1,2.463-2.463,2.466,2.466,0,0,1-2.463,2.463m0-3.609a1.147,1.147,0,1,0,1.147,1.146,1.148,1.148,0,0,0-1.147-1.146" transform="translate(-105.786 -866.949)" fill="#dedede"/>
    <path id="Path_2371" data-name="Path 2371" d="M1298.891,14.487a2.463,2.463,0,1,1,2.463-2.463,2.466,2.466,0,0,1-2.463,2.463m0-3.609a1.147,1.147,0,1,0,1.147,1.147,1.148,1.148,0,0,0-1.147-1.147" transform="translate(-991.041 -7.309)" fill="#dedede"/>
    <path id="Path_2372" data-name="Path 2372" d="M1480.756,295.135a.566.566,0,0,0-.26.756l.954,1.959-1.959.954a.565.565,0,0,0,.5,1.016l1.959-.954.954,1.959a.565.565,0,0,0,1.017-.5l-.954-1.959,1.959-.954a.565.565,0,1,0-.5-1.016l-1.959.954-.955-1.959a.566.566,0,0,0-.756-.261" transform="translate(-1130.738 -225.569)" fill="#dedede"/>
    <path id="Path_2373" data-name="Path 2373" d="M1326.811,478.352a2.463,2.463,0,1,1,2.463-2.463,2.466,2.466,0,0,1-2.463,2.463m0-3.609a1.147,1.147,0,1,0,1.147,1.146,1.148,1.148,0,0,0-1.147-1.146" transform="translate(-1012.384 -361.906)" fill="#dedede"/>
    <path id="Path_2374" data-name="Path 2374" d="M.3,639.632a.565.565,0,0,0-.025.8l1.491,1.59L.178,643.512a.565.565,0,0,0,.369.978.562.562,0,0,0,.4-.153l1.589-1.491,1.491,1.59a.565.565,0,0,0,.825-.774l-1.491-1.59,1.59-1.491a.565.565,0,0,0-.774-.825l-1.59,1.491L1.1,639.658a.566.566,0,0,0-.8-.026" transform="translate(0 -488.844)" fill="#dedede"/>
    <path id="Path_2375" data-name="Path 2375" d="M96.336,739.122a2.463,2.463,0,1,1,2.463-2.463,2.466,2.466,0,0,1-2.463,2.463m0-3.609a1.147,1.147,0,1,0,1.146,1.147,1.148,1.148,0,0,0-1.146-1.147" transform="translate(-71.76 -561.248)" fill="#dedede"/>
    <path id="Path_2376" data-name="Path 2376" d="M78.389,693.439a.5.5,0,0,1-.028-1c1.653-.093,3.326-.258,4.973-.491a.5.5,0,0,1,.14.993c-1.675.236-3.376.4-5.057.5h-.029m-7.051-.022h-.032c-1.684-.105-3.384-.285-5.053-.533a.5.5,0,1,1,.147-.991c1.641.244,3.312.42,4.968.524a.5.5,0,0,1-.031,1m18.98-1.864a.5.5,0,0,1-.127-.986c1.607-.422,3.213-.916,4.774-1.47a.5.5,0,0,1,.335.945c-1.587.563-3.221,1.066-4.855,1.495a.5.5,0,0,1-.128.016m-30.895-.116a.5.5,0,0,1-.132-.018c-1.627-.444-3.256-.964-4.841-1.545a.5.5,0,1,1,.345-.941c1.558.571,3.16,1.082,4.76,1.519a.5.5,0,0,1-.132.985m42.2-4.114a.5.5,0,0,1-.223-.95c1.487-.736,2.96-1.545,4.378-2.4a.5.5,0,1,1,.52.857c-1.443.874-2.941,1.7-4.453,2.446a.5.5,0,0,1-.222.052m-53.472-.232a.5.5,0,0,1-.226-.054c-1.5-.763-2.995-1.6-4.431-2.486a.5.5,0,0,1,.527-.853c1.413.872,2.879,1.695,4.358,2.445a.5.5,0,0,1-.227.949m63.686-6.2a.5.5,0,0,1-.309-.9c1.306-1.022,2.586-2.112,3.8-3.241a.5.5,0,0,1,.682.735c-1.237,1.148-2.538,2.257-3.866,3.3a.5.5,0,0,1-.308.106m-73.852-.32a.5.5,0,0,1-.311-.109c-1.322-1.049-2.615-2.167-3.844-3.323a.5.5,0,0,1,.687-.73c1.208,1.136,2.48,2.236,3.78,3.267a.5.5,0,0,1-.312.894m82.561-8.041a.5.5,0,0,1-.382-.826c1.075-1.264,2.109-2.59,3.075-3.939a.5.5,0,0,1,.816.583c-.981,1.372-2.033,2.72-3.126,4.005a.5.5,0,0,1-.382.177m-91.213-.378a.5.5,0,0,1-.384-.179c-1.085-1.294-2.127-2.649-3.1-4.028a.5.5,0,0,1,.82-.577c.954,1.356,1.978,2.688,3.045,3.96a.5.5,0,0,1-.384.823m98.071-9.562a.5.5,0,0,1-.439-.743c.8-1.454,1.549-2.959,2.224-4.475a.5.5,0,1,1,.916.408c-.687,1.541-1.447,3.072-2.261,4.55a.5.5,0,0,1-.44.26m-104.85-.431a.5.5,0,0,1-.442-.264c-.8-1.485-1.546-3.023-2.217-4.572a.5.5,0,1,1,.92-.4c.66,1.522,1.393,3.034,2.179,4.495a.5.5,0,0,1-.441.739m109.578-10.683a.5.5,0,0,1-.479-.65c.492-1.586.922-3.211,1.277-4.83a.5.5,0,1,1,.979.215c-.362,1.647-.8,3.3-1.3,4.912a.5.5,0,0,1-.479.353m-114.192-.474a.5.5,0,0,1-.48-.358c-.482-1.612-.9-3.268-1.25-4.923a.5.5,0,0,1,.981-.206c.342,1.628.755,3.257,1.229,4.842a.5.5,0,0,1-.481.645m116.58-11.367-.049,0a.5.5,0,0,1-.45-.547c.16-1.65.252-3.328.271-4.988a.5.5,0,1,1,1,.012c-.02,1.688-.113,3.395-.276,5.073a.5.5,0,0,1-.5.453m-118.866-.492a.5.5,0,0,1-.5-.456c-.152-1.683-.234-3.39-.244-5.076a.5.5,0,0,1,.5-.5h0a.5.5,0,0,1,.5.5c.009,1.657.09,3.336.24,4.991a.5.5,0,0,1-.454.544l-.046,0m118.8-11.584a.5.5,0,0,1-.5-.448c-.176-1.645-.424-3.308-.738-4.943l-.012-.064a.5.5,0,0,1,.984-.191l.012.065c.319,1.662.572,3.353.751,5.026a.5.5,0,0,1-.445.552.459.459,0,0,1-.054,0m-118.665-.5a.524.524,0,0,1-.057,0,.5.5,0,0,1-.441-.555c.191-1.676.456-3.365.789-5.02a.5.5,0,1,1,.983.2c-.327,1.627-.588,3.287-.776,4.935a.5.5,0,0,1-.5.445m116.17-11.386a.5.5,0,0,1-.477-.349c-.5-1.583-1.08-3.161-1.713-4.692a.5.5,0,0,1,.926-.383c.645,1.557,1.231,3.162,1.743,4.772a.5.5,0,0,1-.478.653M18.378,615.27a.5.5,0,0,1-.476-.658c.526-1.6,1.127-3.2,1.787-4.756a.5.5,0,1,1,.923.392c-.649,1.528-1.24,3.1-1.758,4.677a.5.5,0,0,1-.476.345M127.16,604.608a.5.5,0,0,1-.438-.256c-.812-1.446-1.7-2.875-2.628-4.248a.5.5,0,1,1,.829-.563c.948,1.4,1.847,2.85,2.673,4.32a.5.5,0,0,1-.437.747m-103.875-.372a.5.5,0,0,1-.435-.75c.837-1.464,1.748-2.911,2.705-4.3a.5.5,0,1,1,.826.569c-.942,1.367-1.837,2.79-2.66,4.229a.5.5,0,0,1-.436.253m96.925-9.5a.5.5,0,0,1-.379-.172c-1.087-1.252-2.242-2.473-3.433-3.63a.5.5,0,1,1,.7-.719c1.211,1.176,2.385,2.418,3.491,3.691a.5.5,0,0,1-.378.83M30.3,594.41a.5.5,0,0,1-.376-.832c1.114-1.268,2.3-2.5,3.512-3.672a.5.5,0,1,1,.695.723c-1.2,1.15-2.357,2.364-3.453,3.611a.5.5,0,0,1-.377.17m81.109-7.94a.5.5,0,0,1-.3-.1c-1.317-1.009-2.694-1.974-4.091-2.869a.5.5,0,0,1,.541-.844c1.42.91,2.82,1.891,4.16,2.917a.5.5,0,0,1-.305.9m-72.265-.277a.5.5,0,0,1-.3-.9c1.346-1.018,2.752-1.99,4.179-2.889a.5.5,0,0,1,.534.848c-1.4.884-2.786,1.84-4.109,2.841a.5.5,0,0,1-.3.1m61.987-6.064a.5.5,0,0,1-.219-.05c-1.493-.725-3.035-1.4-4.583-1.991a.5.5,0,1,1,.36-.936c1.574.606,3.142,1.288,4.66,2.025a.5.5,0,0,1-.219.952m-51.664-.2a.5.5,0,0,1-.215-.954c1.523-.723,3.1-1.39,4.678-1.982a.5.5,0,0,1,.352.939c-1.554.582-3.1,1.238-4.6,1.949a.5.5,0,0,1-.215.048m40.323-3.951a.5.5,0,0,1-.124-.016c-1.608-.409-3.254-.755-4.89-1.026a.5.5,0,0,1,.164-.989c1.664.276,3.337.627,4.973,1.043a.5.5,0,0,1-.123.987m-28.947-.093a.5.5,0,0,1-.119-.988c1-.244,2.015-.467,3.027-.661.646-.124,1.3-.239,1.953-.342a.5.5,0,0,1,.157.99c-.639.1-1.286.215-1.921.337-1,.192-2,.41-2.978.651a.507.507,0,0,1-.12.014m17-1.679h-.023c-.878-.04-1.769-.06-2.647-.06-.779,0-1.57.016-2.349.047a.5.5,0,1,1-.04-1c.793-.032,1.6-.048,2.389-.048.893,0,1.8.021,2.692.061a.5.5,0,0,1-.022,1" transform="translate(-11.402 -438.135)" fill="#dedede"/>
    <path id="Path_2377" data-name="Path 2377" d="M687.107,209.765q-.433.028-.865.053a.5.5,0,0,1-.061-1h0c1.639-.093,3.3-.225,4.934-.4a.5.5,0,1,1,.1,1c-1.364.142-2.748.258-4.115.347m-7.818.214h-.038c-1.659-.017-3.338-.073-4.993-.169a.5.5,0,1,1,.058-1c1.638.095,3.3.151,4.945.167a.5.5,0,0,1,.028,1m18.811-1.5a.5.5,0,0,1-.116-.994c1.622-.277,3.256-.6,4.857-.947a.5.5,0,0,1,.215.979c-1.616.355-3.266.676-4.9.956l-.053.006m-30.71.7a.516.516,0,0,1-.1,0c-1.646-.207-3.309-.456-4.941-.74a.5.5,0,1,1,.172-.988c1.616.282,3.263.529,4.893.733a.5.5,0,0,1-.029,1m42.335-3.37a.5.5,0,0,1-.172-.982c1.577-.458,3.164-.96,4.717-1.493a.5.5,0,0,1,.325.948c-1.568.538-3.17,1.045-4.763,1.507a.508.508,0,0,1-.108.019m-54.074,1.206A.506.506,0,0,1,655.5,207c-1.612-.394-3.238-.834-4.832-1.306a.5.5,0,1,1,.285-.961c1.579.467,3.189.9,4.786,1.293a.5.5,0,0,1-.087.987m65.318-5.182a.5.5,0,0,1-.226-.963c1.515-.636,3.034-1.317,4.515-2.024a.5.5,0,0,1,.432.9c-1.5.714-3.029,1.4-4.559,2.044a.5.5,0,0,1-.162.038m-76.737,1.681a.5.5,0,0,1-.206-.03c-1.555-.577-3.119-1.2-4.647-1.85a.5.5,0,0,1,.393-.922c1.514.645,3.063,1.261,4.6,1.832a.5.5,0,0,1-.142.97m87.442-6.918a.5.5,0,0,1-.278-.937c1.428-.8,2.856-1.652,4.244-2.523a.5.5,0,0,1,.533.849c-1.4.879-2.844,1.737-4.286,2.548a.5.5,0,0,1-.213.064m-98.381,2.136a.5.5,0,0,1-.259-.053c-1.48-.75-2.962-1.547-4.4-2.366a.5.5,0,1,1,.5-.872c1.428.812,2.9,1.6,4.362,2.344a.5.5,0,0,1-.195.947m108.41-8.561a.5.5,0,0,1-.327-.906c1.328-.962,2.651-1.97,3.932-2.994a.5.5,0,0,1,.626.783c-1.293,1.034-2.629,2.051-3.97,3.023a.5.5,0,0,1-.261.094m-118.729,2.568a.5.5,0,0,1-.308-.082c-1.385-.913-2.766-1.872-4.105-2.849a.5.5,0,0,1,.591-.81c1.326.968,2.694,1.917,4.066,2.822a.5.5,0,0,1-.244.919m127.965-10.1a.5.5,0,0,1-.371-.87c1.21-1.108,2.41-2.26,3.568-3.424a.5.5,0,0,1,.711.707c-1.168,1.176-2.38,2.339-3.6,3.457a.5.5,0,0,1-.306.131m-137.534,2.978a.5.5,0,0,1-.354-.116c-1.271-1.063-2.534-2.172-3.754-3.294a.5.5,0,1,1,.679-.738c1.208,1.112,2.459,2.21,3.718,3.263a.5.5,0,0,1-.289.885M759.263,174.1a.5.5,0,0,1-.411-.829c1.078-1.239,2.14-2.52,3.158-3.809a.5.5,0,0,1,.787.622c-1.028,1.3-2.1,2.594-3.188,3.845a.5.5,0,0,1-.346.171m-154.555,3.356a.5.5,0,0,1-.4-.155c-1.142-1.2-2.271-2.444-3.354-3.7a.5.5,0,0,1,.758-.656c1.073,1.241,2.191,2.473,3.322,3.662a.5.5,0,0,1-.331.846m161.86-12.785a.5.5,0,0,1-.445-.784c.931-1.354,1.842-2.749,2.708-4.144a.5.5,0,0,1,.852.528c-.873,1.409-1.793,2.816-2.733,4.184a.5.5,0,0,1-.381.216M597,168.366a.5.5,0,0,1-.433-.2c-1-1.321-1.976-2.684-2.91-4.052a.5.5,0,0,1,.828-.565c.925,1.355,1.894,2.705,2.882,4.013a.5.5,0,0,1-.367.8m175.763-13.9a.5.5,0,0,1-.474-.736c.772-1.453,1.519-2.942,2.22-4.426a.5.5,0,1,1,.907.428c-.708,1.5-1.462,3-2.242,4.469a.5.5,0,0,1-.411.265m-182.384,3.992a.5.5,0,0,1-.465-.246c-.839-1.426-1.655-2.891-2.425-4.355a.5.5,0,0,1,.887-.467c.763,1.45,1.571,2.9,2.4,4.313a.5.5,0,0,1-.4.755M777.754,143.63a.5.5,0,0,1-.5-.684c.6-1.532,1.175-3.1,1.7-4.654a.5.5,0,1,1,.95.322c-.532,1.571-1.11,3.152-1.718,4.7a.5.5,0,0,1-.434.317m-192.823,4.233a.5.5,0,0,1-.491-.3c-.672-1.516-1.315-3.068-1.913-4.615a.5.5,0,0,1,.935-.362c.592,1.532,1.23,3.07,1.895,4.571a.5.5,0,0,1-.255.661.5.5,0,0,1-.171.042m196.546-15.579a.5.5,0,0,1-.517-.629c.423-1.591.812-3.214,1.157-4.821a.5.5,0,0,1,.98.21c-.349,1.623-.742,3.261-1.169,4.868a.5.5,0,0,1-.452.372M580.735,136.7a.5.5,0,0,1-.51-.351c-.493-1.582-.955-3.2-1.372-4.8a.5.5,0,0,1,.971-.252c.413,1.59.87,3.19,1.359,4.757a.5.5,0,0,1-.447.649m203.138-16.11a.51.51,0,0,1-.105,0,.5.5,0,0,1-.424-.568c.236-1.624.436-3.277.595-4.912a.5.5,0,1,1,1,.1c-.16,1.651-.362,3.32-.6,4.959a.5.5,0,0,1-.463.428m-206.031,4.54a.5.5,0,0,1-.524-.407c-.31-1.626-.585-3.285-.819-4.929a.5.5,0,0,1,.993-.141c.232,1.628.5,3.271.811,4.882a.5.5,0,0,1-.4.586.511.511,0,0,1-.062.008m207.067-16.422h-.048a.5.5,0,0,1-.486-.516c.048-1.641.058-3.305.028-4.948a.5.5,0,0,1,1-.018c.03,1.658.021,3.339-.028,5a.5.5,0,0,1-.468.485m-208.635,4.6a.5.5,0,0,1-.532-.462q-.045-.586-.082-1.171c-.082-1.267-.142-2.551-.178-3.818a.5.5,0,0,1,1-.029c.036,1.255.095,2.527.176,3.782q.037.579.081,1.16a.5.5,0,0,1-.462.538h-.005M784.58,96.785a.5.5,0,0,1-.532-.458c-.138-1.634-.317-3.289-.532-4.921l-.021-.159a.5.5,0,0,1,.994-.132l.021.161c.217,1.646.4,3.318.537,4.967a.5.5,0,0,1-.457.542h-.01m-208.531,4.593H576a.5.5,0,0,1-.482-.52c.063-1.657.168-3.335.31-4.986a.5.5,0,0,1,1,.086c-.141,1.635-.244,3.3-.307,4.938a.5.5,0,0,1-.468.481m206.83-16.563a.5.5,0,0,1-.523-.4c-.323-1.611-.69-3.235-1.089-4.826a.5.5,0,0,1,.973-.244c.4,1.607.773,3.246,1.1,4.873a.5.5,0,0,1-.46.6m-205.691,4.69a.489.489,0,0,1-.109,0,.5.5,0,0,1-.419-.572c.253-1.643.55-3.3.883-4.93a.5.5,0,0,1,.983.2c-.329,1.613-.623,3.256-.874,4.882a.5.5,0,0,1-.463.424M779.87,73.276a.5.5,0,0,1-.509-.347c-.5-1.563-1.054-3.134-1.632-4.671a.5.5,0,1,1,.938-.353c.584,1.551,1.139,3.138,1.648,4.716a.5.5,0,0,1-.445.655M579.687,77.822a.5.5,0,0,1-.516-.633c.44-1.6.926-3.213,1.443-4.792a.5.5,0,0,1,.953.312c-.512,1.564-.993,3.161-1.429,4.746a.5.5,0,0,1-.451.367M775.56,62.155a.5.5,0,0,1-.489-.293c-.681-1.495-1.406-2.993-2.158-4.453a.5.5,0,1,1,.892-.459c.758,1.474,1.491,2.987,2.179,4.5a.5.5,0,0,1-.424.708M583.51,66.509a.5.5,0,0,1-.5-.688c.62-1.539,1.286-3.084,1.98-4.593a.5.5,0,1,1,.911.419c-.687,1.494-1.347,3.025-1.961,4.549a.5.5,0,0,1-.433.313m186.5-14.9a.5.5,0,0,1-.462-.242c-.845-1.4-1.737-2.806-2.649-4.168a.5.5,0,0,1,.833-.558c.921,1.376,1.821,2.792,2.675,4.209a.5.5,0,0,1-.4.759M588.6,55.711a.5.5,0,0,1-.472-.74c.791-1.457,1.628-2.916,2.489-4.335a.5.5,0,1,1,.857.52c-.852,1.406-1.681,2.851-2.465,4.294a.5.5,0,0,1-.409.261M763.285,41.774a.5.5,0,0,1-.43-.194c-1-1.3-2.048-2.592-3.11-3.842a.5.5,0,0,1,.764-.649c1.072,1.262,2.128,2.566,3.14,3.879a.5.5,0,0,1-.364.806M594.879,45.566a.5.5,0,0,1-.443-.788c.951-1.358,1.948-2.712,2.963-4.023a.5.5,0,1,1,.793.614c-1,1.3-1.992,2.64-2.935,3.985a.5.5,0,0,1-.379.213m160.6-12.8a.5.5,0,0,1-.392-.151c-1.143-1.177-2.33-2.343-3.528-3.466a.5.5,0,1,1,.685-.732c1.209,1.133,2.408,2.31,3.562,3.5a.5.5,0,0,1-.327.849M602.267,36.2a.5.5,0,0,1-.408-.832c1.1-1.241,2.242-2.472,3.4-3.66a.5.5,0,1,1,.718.7c-1.145,1.176-2.277,2.4-3.366,3.625a.5.5,0,0,1-.343.168M746.7,24.695a.5.5,0,0,1-.35-.113c-1.27-1.04-2.582-2.065-3.9-3.045a.5.5,0,1,1,.6-.8c1.331.989,2.656,2.024,3.938,3.074a.5.5,0,0,1-.285.888M610.665,27.737a.5.5,0,0,1-.368-.873c1.232-1.108,2.507-2.2,3.789-3.248a.5.5,0,0,1,.634.776c-1.27,1.038-2.533,2.12-3.753,3.218a.5.5,0,0,1-.3.127m126.4-10.067a.5.5,0,0,1-.3-.079c-1.381-.891-2.8-1.76-4.222-2.584a.5.5,0,0,1,.5-.867c1.435.832,2.869,1.71,4.263,2.609a.5.5,0,0,1-.24.922M619.967,20.286a.5.5,0,0,1-.323-.909c1.349-.96,2.739-1.9,4.132-2.793a.5.5,0,0,1,.542.844c-1.379.885-2.757,1.816-4.093,2.766a.5.5,0,0,1-.258.092m106.714-8.5a.5.5,0,0,1-.254-.051c-1.473-.728-2.984-1.431-4.491-2.089a.5.5,0,0,1,.4-.919c1.521.664,3.047,1.374,4.534,2.109a.5.5,0,0,1-.19.95m-96.629,2.168a.5.5,0,0,1-.275-.94c1.452-.8,2.944-1.576,4.432-2.305a.5.5,0,1,1,.441.9c-1.474.722-2.951,1.491-4.39,2.283a.5.5,0,0,1-.209.061M715.7,7.111a.5.5,0,0,1-.2-.029c-1.549-.556-3.131-1.082-4.7-1.562a.5.5,0,0,1,.293-.959c1.587.485,3.185,1.016,4.749,1.578a.5.5,0,0,1-.137.972M640.812,8.8a.5.5,0,0,1-.222-.964c1.534-.628,3.1-1.227,4.668-1.781a.5.5,0,1,1,.335.945c-1.549.549-3.1,1.142-4.623,1.764a.5.5,0,0,1-.158.037m63.431-5.076a.5.5,0,0,1-.147-.012c-1.6-.375-3.236-.715-4.855-1.013a.5.5,0,0,1,.181-.986c1.634.3,3.283.644,4.9,1.023a.5.5,0,0,1-.082.988m-52.152,1.2a.5.5,0,0,1-.167-.983c1.595-.448,3.223-.863,4.84-1.236a.5.5,0,0,1,.225.977c-1.6.368-3.215.78-4.794,1.224a.5.5,0,0,1-.1.018m40.391-3.244a.5.5,0,0,1-.09,0c-1.631-.188-3.289-.338-4.928-.447a.5.5,0,1,1,.067-1c1.655.11,3.329.262,4.976.452a.5.5,0,0,1-.024,1m-28.744.678a.5.5,0,0,1-.112-1c1.02-.165,2.059-.317,3.087-.453.619-.082,1.245-.159,1.863-.229a.5.5,0,1,1,.114,1c-.612.07-1.233.146-1.845.227-1.019.134-2.047.285-3.058.449l-.048.005M680.574,1h-.033c-1.64,0-3.3.04-4.946.118a.5.5,0,0,1-.057-1h.009C677.205.042,678.885,0,680.541,0a.5.5,0,0,1,.033,1" transform="translate(-439.921 -0.001)" fill="#dedede"/>
    <path id="Path_2378" data-name="Path 2378" d="M557.268,109.062V281.525h-.453L543.758,268.82,530.7,281.525h-1.36L516.283,268.82l-13.059,12.706h-1.342l-13.035-12.682-13.034,12.682h-1.335l-13.049-12.7-13.049,12.7H447l-13.049-12.7-13.049,12.7h-1.361l-13.024-12.672L393.5,281.525h-.86V61.13h116.7Z" transform="translate(-300.146 -46.73)" fill="#f2f2f2"/>
    <path id="Path_2379" data-name="Path 2379" d="M935.986,109.062H888.054V61.13Z" transform="translate(-678.863 -46.73)" fill="#dedede"/>
    <path id="Path_2380" data-name="Path 2380" d="M502.845,492.674v-6.45H485.437a7.153,7.153,0,0,1-4.941-1.491,5.2,5.2,0,0,1-1.647-4.057,3.929,3.929,0,0,1,.243-1.335,6.885,6.885,0,0,1,.728-1.422q.485-.745,1.006-1.439t1.283-1.7L500.487,450.2a27.979,27.979,0,0,1,2.965-3.52,3.93,3.93,0,0,1,2.791-1.092q5.27,0,5.271,6.033v26.839H513a10.536,10.536,0,0,1,4.282.728q1.612.728,1.612,3.19a3.321,3.321,0,0,1-1.318,2.93,6.935,6.935,0,0,1-3.953.919h-2.115v6.45a5.76,5.76,0,0,1-1.179,3.97,4.416,4.416,0,0,1-6.293-.035,5.724,5.724,0,0,1-1.2-3.936m-14.911-14.217h14.911V458.311Z" transform="translate(-366.051 -340.623)" fill="#14417d"/>
    <path id="Path_2381" data-name="Path 2381" d="M703.956,473.047a59.467,59.467,0,0,1-.693,9.779,22.774,22.774,0,0,1-2.566,7.421,17.043,17.043,0,0,1-6.1,6.311,16.577,16.577,0,0,1-17.771-.763,18.142,18.142,0,0,1-6.293-8.253,30.645,30.645,0,0,1-1.578-6.363,52.891,52.891,0,0,1-.5-7.542A72.415,72.415,0,0,1,669,464.2a31.1,31.1,0,0,1,1.734-7.212,15.516,15.516,0,0,1,15.257-10.229,17.373,17.373,0,0,1,6.484,1.162,14.8,14.8,0,0,1,5.115,3.4,19.439,19.439,0,0,1,3.727,5.531q2.635,5.722,2.635,16.194m-9.5-.693a57.778,57.778,0,0,0-.763-10.385,12.784,12.784,0,0,0-2.566-6.1,6.285,6.285,0,0,0-4.993-2.063q-4.577,0-6.363,4.612t-1.786,14.217a61.1,61.1,0,0,0,.763,10.68,13.416,13.416,0,0,0,2.566,6.293,6.7,6.7,0,0,0,9.883-.087,13.767,13.767,0,0,0,2.531-6.346,64.665,64.665,0,0,0,.728-10.819" transform="translate(-510.988 -341.523)" fill="#14417d"/>
    <path id="Path_2382" data-name="Path 2382" d="M861.141,492.674v-6.45H843.734a7.153,7.153,0,0,1-4.941-1.491,5.2,5.2,0,0,1-1.647-4.057,3.928,3.928,0,0,1,.243-1.335,6.9,6.9,0,0,1,.728-1.422q.485-.745,1.006-1.439t1.283-1.7L858.783,450.2a27.979,27.979,0,0,1,2.965-3.52,3.93,3.93,0,0,1,2.791-1.092q5.27,0,5.271,6.033v26.839H871.3a10.535,10.535,0,0,1,4.282.728q1.612.728,1.612,3.19a3.32,3.32,0,0,1-1.318,2.93,6.934,6.934,0,0,1-3.953.919H869.81v6.45a5.759,5.759,0,0,1-1.179,3.97,4.416,4.416,0,0,1-6.293-.035,5.724,5.724,0,0,1-1.2-3.936m-14.911-14.217h14.911V458.311Z" transform="translate(-639.947 -340.623)" fill="#14417d"/>
    <path id="Path_2383" data-name="Path 2383" d="M581.038,1056.053h0a5.807,5.807,0,0,1-8.212,0L537.569,1020.8l-4.48-4.48a28.958,28.958,0,0,0,8.211-8.212l39.737,39.737a5.806,5.806,0,0,1,0,8.211" transform="translate(-407.514 -770.635)" fill="#9c9c9c"/>
    <path id="Path_2384" data-name="Path 2384" d="M548.884,1015.684l9.187,9.188a28.97,28.97,0,0,1-8.21,8.212h0l-4.707-4.708-4.48-4.48a28.959,28.959,0,0,0,8.211-8.212" transform="translate(-413.312 -776.429)" fill="#5e5e5e"/>
    <path id="Path_2385" data-name="Path 2385" d="M387.187,825.7a35.023,35.023,0,0,0-70.014,1.51,35.528,35.528,0,0,0,.221,3.961,34.757,34.757,0,0,0,3.352,11.466h0a35.15,35.15,0,0,0,10.684,12.776q1.1.811,2.263,1.537a35.044,35.044,0,0,0,38.821-1.211h0a35.213,35.213,0,0,0,8.211-8.21h0a34.867,34.867,0,0,0,6.492-20.318q0-.76-.032-1.51M352.2,856A28.76,28.76,0,0,1,323.4,827.209a28.809,28.809,0,0,1,32.55-28.549,28.8,28.8,0,0,1,25.036,28.549q0,.658-.03,1.308a28.647,28.647,0,0,1-4.713,14.53,28.971,28.971,0,0,1-8.211,8.213q-1.2.791-2.482,1.464A28.7,28.7,0,0,1,352.2,856" transform="translate(-242.46 -605.578)" fill="#b8b8b8"/>
    <path id="Path_2386" data-name="Path 2386" d="M364.568,864.554a2.689,2.689,0,0,1-2.689-2.689,24.969,24.969,0,0,1,24.97-24.969,2.689,2.689,0,0,1,0,5.378,19.592,19.592,0,0,0-19.592,19.592,2.689,2.689,0,0,1-2.689,2.689" transform="translate(-276.635 -639.756)" fill="#fff"/>
  </g>
</svg>
